# xmcd
#
# Track frame offsets: 
#        150
#        19879
#        43887
#        79357
#        107628
#        143470
#        173231
#        206045
#        216013
#        233106
#        250551
#
# Disc length: 3637 seconds
#
# Revision: 0
# Processed by: cddbd v1.5.2PL0 Copyright (c) Steve Scherf et al.
# Submitted via: ExactAudioCopy v0.99pb3
#
DISCID=930e330b
DTITLE=Tom Waits - Berlin Theater des Westens Nov. 15. 2004 [CD2]
DYEAR=2004
DGENRE=Blues
TTITLE0=Gods Away On Business
TTITLE1=Alice
TTITLE2=Table Top Joe
TTITLE3=Metropolitan Glide
TTITLE4=Get Behinde The Mule
TTITLE5=Day After Tomorrow
TTITLE6=Shake It
TTITLE7=Johnsburg, Illionis
TTITLE8=Lost In The Harbour
TTITLE9=Lucky Day
TTITLE10=Jockey Full Of Bourbon
EXTD=
EXTT0=
EXTT1=
EXTT2=
EXTT3=
EXTT4=
EXTT5=
EXTT6=
EXTT7=
EXTT8=
EXTT9=
EXTT10=
PLAYORDER=
